<svg viewBox="0 0 256 256" xmlns="http://www.w3.org/2000/svg" fill-rule="evenodd" clip-rule="evenodd" stroke-linecap="round" stroke-linejoin="round" stroke-miterlimit="1.5">
    <path d="M99.974 236.285s-.232 2.587 3.854 2.587c4.087 0 16.43-5.788 18.449-7.128 2.02-1.34-2.562-3.045-2.562-3.045s-12.693-.405-19.741 7.586z" fill="#951c20" stroke="#000" stroke-width=".45" transform="rotate(45 1462.107 21.001) scale(4.73602 4.62065)"/>
    <path d="M99.974 236.285s-.232 2.587 3.854 2.587c4.087 0 16.43-5.788 18.449-7.128 2.02-1.34-2.562-3.045-2.562-3.045s-12.693-.405-19.741 7.586z" fill="#951c20" stroke="#000" stroke-width=".45" transform="rotate(-135 603.068 -359.429) scale(4.73829 -4.62064)"/>
    <path d="M121.435 216.831s-9.15-5.597-16.346-5.682c-7.197-.084-5.836 3.209-5.836 4.414 0 1.205.02 20.722.02 20.722s8.577-7.567 19.873-7.567c3.277-.159 2.289-11.887 2.289-11.887z" fill="#ce3d46" stroke="#000" stroke-width=".45" transform="matrix(3.27445 3.27445 -3.26729 3.26729 452.864 -1017.941)"/>
    <path d="M121.435 216.831s-9.15-5.597-16.346-5.682c-7.197-.084-5.836 3.209-5.836 4.414 0 1.205.02 20.722.02 20.722s8.577-7.567 19.873-7.567c3.277-.159 2.289-11.887 2.289-11.887z" fill="#ce3d46" stroke="#000" stroke-width=".45" transform="rotate(-135 593.877 -363.235) scale(4.58686 -4.62065)"/>
    <path d="M163.962 146.094c12.278-12.278 12.278-32.215 0-44.494l-9.414-9.413c-12.278-12.278-32.215-12.278-44.494 0l-12.556 12.557c-12.278 12.278-12.278 32.215 0 44.494l9.413 9.413c12.279 12.278 32.216 12.278 44.494 0l12.557-12.557z" fill="#db626e" stroke="#000" stroke-width="2.079"/>
</svg>
